# xmcd
#
# Track frame offsets:
#	150
#	23975
#	43392
#	61870
#	82220
#	99855
#	122485
#	141637
#	160715
#	181522
#
# Disc length: 2695 seconds
#
# Revision: 4
# Processed by: cddbd v1.5.2PL0 Copyright (c) Steve Scherf et al.
# Submitted via: EZCDAudioConverter 8.0.2.1
#
DISCID=800a850a
DTITLE=Cadice Phi Phi - One In A Lifetime (Nỗi Sầu Dịu Dàng)
DYEAR=1994
DGENRE=Hawaii
TTITLE0=One In A Lifetime (Nỗi Sầu Dịu Dàng)
TTITLE1=Come Undone (Tình vỗ cánh bay)
TTITLE2=Tonite's So Cold (Giấc mơ phai)
TTITLE3=Baby I Love Your Way (Tình yêu và kỷ niệm)
TTITLE4=If I Cant Have You (Đừng xa em)
TTITLE5=Lavie En Rose (Tình hồng)
TTITLE6=I Can See Clerarly
TTITLE7=Face In The Miror (Tình yêu ngây thơ)
TTITLE8=I Totaly Miss You (Mãi mãi mất em)
TTITLE9=Winner Takes All (Làm sao em biết)
EXTD=
EXTT0=
EXTT1=
EXTT2=
EXTT3=
EXTT4=
EXTT5=
EXTT6=
EXTT7=
EXTT8=
EXTT9=
PLAYORDER=
